<svg xmlns="http://www.w3.org/2000/svg" xml:space="preserve" viewBox="0 0 470 470">
  <path fill="#fff" stroke="#000" stroke-width="5" stroke-linecap="butt" d="M370.027 161.547c-25.85-27.98-59.325-47.004-96-54.935V88.127c3.403-2.116 6.383-5.162 8.643-8.967.688-1.159 1.051-2.482 1.051-3.83V44.482c0-4.142-3.358-7.5-7.5-7.5h-11.04v-6.8C265.182 13.54 251.643 0 235 0s-30.182 13.54-30.182 30.182v6.8h-11.04c-4.142 0-7.5 3.358-7.5 7.5V75.33c0 1.346.362 2.667 1.049 3.825 2.259 3.81 5.24 6.858 8.646 8.975v18.482c-36.674 7.93-70.149 26.955-96 54.935-31.441 34.032-48.757 78.307-48.757 124.67C51.216 387.555 133.661 470 235 470s183.784-82.445 183.784-183.783c0-46.363-17.316-90.638-48.757-124.67zM219.818 30.182C219.818 21.811 226.628 15 235 15s15.182 6.811 15.182 15.182v6.8h-30.364v-6.8zm-18.54 21.8h67.443v21.051c-1.763 2.224-3.973 3.467-6.243 3.467-2.749 0-5.405-1.821-7.287-4.995-1.351-2.278-3.803-3.675-6.451-3.675-2.652.001-5.104 1.399-6.454 3.679-1.878 3.172-4.535 4.991-7.289 4.991-2.749 0-5.405-1.821-7.287-4.995-1.35-2.277-3.801-3.674-6.449-3.675-2.649 0-5.1 1.395-6.451 3.671-1.887 3.177-4.545 4.999-7.294 4.999-2.271 0-4.478-1.243-6.238-3.464V51.982zM235 455c-93.067 0-168.784-75.716-168.784-168.783 0-87.002 67.827-160.871 154.414-168.168 4.127-.348 7.191-3.976 6.844-8.104-.348-4.127-3.966-7.189-8.104-6.844-2.812.237-5.612.54-8.397.904V91.206c3.705-.615 7.22-2.199 10.285-4.612 4.003 3.153 8.775 4.905 13.74 4.905 4.969 0 9.742-1.751 13.744-4.902 3.064 2.412 6.58 3.996 10.286 4.609v12.798c-2.785-.364-5.585-.667-8.397-.904-4.126-.352-7.755 2.716-8.104 6.844-.348 4.127 2.716 7.755 6.844 8.104 86.587 7.298 154.414 81.166 154.414 168.168C403.784 379.284 328.067 455 235 455z"/>
</svg>
