<svg fill="#fff" xmlns="http://www.w3.org/2000/svg" viewBox="0 0 50 50">
  <path d="M22.5 5C16.714844 5 12 9.710938 12 15.5c0 .171875.023438.332031.03125.5H12c-4.40625 0-8 3.59375-8 8s3.59375 8 8 8c.359375.003906.695313-.183594.878906-.496094.179688-.3125.179688-.695312 0-1.007812-.183593-.3125-.519531-.5-.878906-.496094-3.324219 0-6-2.675781-6-6s2.675781-6 6-6c.324219 0 .632813.039063.96875.09375l1.40625.21875-.25-1.375C14.042969 16.457031 14 15.976563 14 15.5c0-4.707031 3.792969-8.5 8.5-8.5 4.25 0 7.734375 3.097656 8.375 7.15625l.21875 1.375 1.25-.625C33.449219 14.335938 34.675781 14 36 14c4.429688 0 8 3.570313 8 8 0 4.429688-3.570312 8-8 8-.359375-.003906-.695312.183594-.878906.496094-.179688.3125-.179688.695312 0 1.007812.183594.3125.519531.5.878906.496094 5.511719 0 10-4.488281 10-10s-4.488281-10-10-10c-1.253906 0-2.425781.296875-3.53125.71875C31.230469 8.296875 27.308594 5 22.5 5Zm1.40625 12.96875c-.042969.007813-.085937.019531-.125.03125-.464844.105469-.792969.523438-.78125 1v1h-.59375c-.550781.027344-.980469.496094-.953125 1.046875.027344.550781.496094.980469 1.046875.953125h.5v3.25l-2.84375-1.625.25-.4375c.1875-.320312.179688-.71875-.015625-1.03125-.199219-.316406-.550781-.496094-.921875-.46875-.328125.027344-.617187.214844-.78125.5l-.25.4375-.875-.5c-.199219-.117187-.429687-.160156-.65625-.125-.433594.054688-.777344.382813-.859375.8125-.078125.429688.132813.859375.515625 1.0625l.875.5-.25.4375c-.226562.308594-.257812.71875-.082031 1.058594.179687.339844.535156.546875.917969.535156.386718-.011719.726562-.242187.882812-.59375l.25-.4375L21.96875 27l-2.8125 1.625-.25-.4375c-.199219-.355469-.597656-.550781-1-.5-.332031.046875-.617187.257813-.761719.558594-.144531.300781-.128906.652344.042969.941406l.25.4375-.875.5c-.484375.277344-.652344.890625-.375 1.375.277344.484375.890625.652344 1.375.375l.875-.5.25.4375c.15625.351563.496094.582031.882813.59375.382812.011719.738281-.195312.917968-.535156.175782-.339844.144532-.75-.082031-1.058594l-.25-.4375L23 28.75V32h-.59375c-.550781.027344-.980469.496094-.953125 1.046875.027344.550781.496094.980469 1.046875.953125h.5v1c-.003906.359375.183594.695313.496094.878906.3125.179688.695312.179688 1.007812 0 .3125-.183593.5-.519531.496094-.878906v-1h.5c.359375.003906.695313-.183594.878906-.496094.179688-.3125.179688-.695312 0-1.007812-.183593-.3125-.519531-.5-.878906-.496094H25v-3.25l2.84375 1.625-.25.4375c-.226562.308594-.257812.71875-.082031 1.058594.179687.339844.535156.546875.917969.535156.386718-.011719.726562-.242187.882812-.59375l.25-.4375.875.5c.484375.277344 1.097656.109375 1.375-.375.277344-.484375.109375-1.097656-.375-1.375l-.875-.5.25-.4375c.1875-.320312.179688-.71875-.015625-1.03125-.199219-.316406-.550781-.496094-.921875-.46875-.328125.027344-.617187.214844-.78125.5l-.25.4375L26.03125 27l2.8125-1.625.25.4375c.15625.351563.496094.582031.882813.59375.382812.011719.738281-.195312.917968-.535156.175782-.339844.144532-.75-.082031-1.058594l-.25-.4375.875-.5c.457031-.222656.671875-.75.503906-1.230469-.164062-.476562-.664062-.753906-1.160156-.644531-.121094.019531-.238281.0625-.34375.125l-.875.5-.25-.4375c-.199219-.355469-.597656-.550781-1-.5-.332031.046875-.617187.257813-.761719.558594-.144531.300781-.128906.652344.042969.941406l.25.4375L25 25.25V22h.5c.359375.003906.695313-.183594.878906-.496094.179688-.3125.179688-.695312 0-1.007812-.183593-.3125-.519531-.5-.878906-.496094H25v-1c.011719-.289062-.105469-.566406-.3125-.761719-.210937-.199218-.496094-.296875-.78125-.269531Zm16.25 16c-.0625.003906-.125.015625-.1875.03125-.292969.058594-.546875.25-.6875.515625-.136719.269531-.148437.582031-.03125.859375l.4375 1.09375-1.0625.4375c-.367187.109375-.636719.414063-.703125.789063-.0625.375.089844.753906.398438.980468.308593.222657.71875.25 1.054687.074219l1.09375-.4375.4375 1.0625c.109375.367188.414063.636719.789063.703125.375.0625.753906-.089844.980468-.398437.222657-.308594.25-.71875.074219-1.054688l-.4375-1.09375 1.0625-.4375c.46875-.171875.738281-.65625.636719-1.144531-.101563-.488281-.546875-.824219-1.042969-.792969-.121094.011719-.234375.042969-.34375.09375l-1.09375.4375-.4375-1.0625c-.144531-.394531-.519531-.65625-.9375-.65625Zm-32 1c-.0625.003906-.125.015625-.1875.03125-.292969.058594-.546875.25-.6875.515625-.136719.269531-.148437.582031-.03125.859375l.4375 1.09375-1.0625.4375c-.367187.109375-.636719.414063-.703125.789063-.0625.375.089844.753906.398438.980468.308593.222657.71875.25 1.054687.074219l1.09375-.4375.4375 1.0625c.109375.367188.414063.636719.789063.703125.375.0625.753906-.089844.980468-.398437.222657-.308594.25-.71875.074219-1.054688l-.4375-1.09375 1.0625-.4375c.46875-.171875.738281-.65625.636719-1.144531-.101563-.488281-.546875-.824219-1.042969-.792969-.121094.011719-.234375.042969-.34375.09375l-1.09375.4375-.4375-1.0625c-.144531-.394531-.519531-.65625-.9375-.65625Zm17 4c-.0625.003906-.125.015625-.1875.03125-.292969.058594-.546875.25-.6875.515625-.136719.269531-.148437.582031-.03125.859375l.4375 1.09375-1.0625.4375c-.367187.109375-.636719.414063-.703125.789063-.0625.375.089844.753906.398438.980468.308593.222657.71875.25 1.054687.074219l1.09375-.4375.4375 1.0625c.109375.367188.414063.636719.789063.703125.375.0625.753906-.089844.980468-.398437.222657-.308594.25-.71875.074219-1.054688l-.4375-1.09375 1.0625-.4375c.46875-.171875.738281-.65625.636719-1.144531-.101563-.488281-.546875-.824219-1.042969-.792969-.121094.011719-.234375.042969-.34375.09375l-1.09375.4375-.4375-1.0625c-.144531-.394531-.519531-.65625-.9375-.65625Zm-10 4c-.0625.003906-.125.015625-.1875.03125-.292969.058594-.546875.25-.6875.515625-.136719.269531-.148437.582031-.03125.859375l.4375 1.09375-1.0625.4375c-.367187.109375-.636719.414063-.703125.789063-.0625.375.089844.753906.398438.980468.308593.222657.71875.25 1.054687.074219l1.09375-.4375.4375 1.0625c.109375.367188.414063.636719.789063.703125.375.0625.753906-.089844.980468-.398437.222657-.308594.25-.71875.074219-1.054688l-.4375-1.09375 1.0625-.4375c.46875-.171875.738281-.65625.636719-1.144531-.101563-.488281-.546875-.824219-1.042969-.792969-.121094.011719-.234375.042969-.34375.09375l-1.09375.4375-.4375-1.0625c-.144531-.394531-.519531-.65625-.9375-.65625Zm20 0c-.0625.003906-.125.015625-.1875.03125-.292969.058594-.546875.25-.6875.515625-.136719.269531-.148437.582031-.03125.859375l.4375 1.09375-1.0625.4375c-.367187.109375-.636719.414063-.703125.789063-.0625.375.089844.753906.398438.980468.308593.222657.71875.25 1.054687.074219l1.09375-.4375.4375 1.0625c.109375.367188.414063.636719.789063.703125.375.0625.753906-.089844.980468-.398437.222657-.308594.25-.71875.074219-1.054688l-.4375-1.09375 1.0625-.4375c.46875-.171875.738281-.65625.636719-1.144531-.101563-.488281-.546875-.824219-1.042969-.792969-.121094.011719-.234375.042969-.34375.09375l-1.09375.4375-.4375-1.0625c-.144531-.394531-.519531-.65625-.9375-.65625Z"/>
</svg>
